<?xml version="1.0" standalone="no"?><!DOCTYPE svg PUBLIC "-//W3C//DTD SVG 1.1//EN" "http://www.w3.org/Graphics/SVG/1.1/DTD/svg11.dtd"><svg t="1481165910686" class="icon" style="" viewBox="0 0 1024 1024" version="1.1" xmlns="http://www.w3.org/2000/svg" p-id="3017" xmlns:xlink="http://www.w3.org/1999/xlink" width="25" height="25"><defs><style type="text/css"></style></defs><path fill="#ffffff" d="M813.653333 210.346667l-60.16 60.16A341.930667 341.930667 0 0 1 853.333333 512c0 188.586667-152.746667 341.333333-341.333333 341.333333s-341.333333-152.746667-341.333333-341.333333c0-174.08 130.133333-317.44 298.666666-338.346667v86.186667C348.16 280.32 256 385.28 256 512c0 141.226667 114.773333 256 256 256s256-114.773333 256-256c0-70.826667-28.586667-134.826667-75.093333-180.906667l-60.16 60.16C663.466667 422.4 682.666667 465.066667 682.666667 512c0 94.293333-76.373333 170.666667-170.666667 170.666667s-170.666667-76.373333-170.666667-170.666667c0-79.36 54.613333-145.493333 128-164.693333v91.306666c-25.6 14.933333-42.666667 41.813333-42.666666 73.386667 0 46.933333 38.4 85.333333 85.333333 85.333333s85.333333-38.4 85.333333-85.333333c0-31.573333-17.066667-58.88-42.666666-73.386667V85.333333h-42.666667C276.48 85.333333 85.333333 276.48 85.333333 512s191.146667 426.666667 426.666667 426.666667 426.666667-191.146667 426.666667-426.666667c0-117.76-47.786667-224.426667-125.013334-301.653333z" p-id="3018"></path></svg>