<?xml version="1.0" standalone="no"?><!DOCTYPE svg PUBLIC "-//W3C//DTD SVG 1.1//EN" "http://www.w3.org/Graphics/SVG/1.1/DTD/svg11.dtd"><svg t="1516844617850" class="icon" style="" viewBox="0 0 1024 1024" version="1.1" xmlns="http://www.w3.org/2000/svg" p-id="2080" xmlns:xlink="http://www.w3.org/1999/xlink" width="250" height="250"><defs><style type="text/css"></style></defs><path fill="#666666" d="M365.714286 804.571429q0-29.714286-21.714286-51.428571t-51.428571-21.714286-51.428571 21.714286-21.714286 51.428571 21.714286 51.428571 51.428571 21.714286 51.428571-21.714286 21.714286-51.428571zm-219.428571-292.571429l219.428571 0 0-146.285714-90.285714 0q-7.428571 0-12.571429 5.142857l-111.428571 111.428571q-5.142857 5.142857-5.142857 12.571429l0 17.142857zm731.428571 292.571429q0-29.714286-21.714286-51.428571t-51.428571-21.714286-51.428571 21.714286-21.714286 51.428571 21.714286 51.428571 51.428571 21.714286 51.428571-21.714286 21.714286-51.428571zm146.285714-621.714286l0 585.142857q0 8.571429-2.285714 15.142857t-7.714286 10.571429-9.428571 6.571429-13.428571 3.428571-12.857143 1.142857-14.571429 0-12.857143 2.857143q0 60.571429-42.857143 103.428571t-103.428571 42.857143-103.428571-42.857143-42.857143-103.428571l-219.428571 0q0 60.571429-42.857143 103.428571t-103.428571 42.857143-103.428571-42.857143-42.857143-103.428571l-36.571429 0q-1.714286 0-12.857143 2.857143t-14.571429 0-12.857143-1.142857-13.428571-3.428571-9.428571-6.571429-7.714286-10.571429-2.285714-15.142857q0-14.857143 10.857143-25.714286t25.714286-10.857143l0-182.857143q0-4.571429 2.857143-20t0-21.714286 1.428571-19.714286 3.714286-21.142857 8-17.428571 12.857143-17.142857l113.142857-113.142857q10.857143-10.857143 28.857143-18.285714t33.428571-7.428571l91.428571 0 0-109.714286q0-14.857143 10.857143-25.714286t25.714286-10.857143l585.142857 0q14.857143 0 25.714286 10.857143t10.857143 25.714286z" p-id="2081"></path></svg>